<svg xmlns="http://www.w3.org/2000/svg" xmlns:xlink="http://www.w3.org/1999/xlink" width="40" zoomAndPan="magnify" viewBox="0 0 30 30.000001" height="40" preserveAspectRatio="xMidYMid meet" version="1.0"><defs><clipPath id="b254bf7c4e"><path d="M 0.484375 8 L 3 8 L 3 12 L 0.484375 12 Z M 0.484375 8 " clip-rule="nonzero"/></clipPath><clipPath id="46a79eaace"><path d="M 18 22 L 25 22 L 25 27.273438 L 18 27.273438 Z M 18 22 " clip-rule="nonzero"/></clipPath><clipPath id="aae839fc18"><path d="M 27 12 L 29.515625 12 L 29.515625 15 L 27 15 Z M 27 12 " clip-rule="nonzero"/></clipPath></defs><path fill="#9ce4fd" d="M 8.371094 7.285156 C 7.203125 7.242188 6.164062 7.933594 5.347656 8.707031 C 4.492188 9.332031 3.476562 9.960938 3.191406 11.050781 C 2.929688 12.097656 3.441406 13.167969 4.140625 13.925781 C 4.9375 14.894531 5.949219 15.835938 7.238281 16.023438 C 8.421875 16.117188 9.550781 15.59375 10.539062 14.988281 C 11.535156 14.246094 11.921875 12.910156 11.789062 11.707031 C 11.726562 10.4375 11.375 9.117188 10.519531 8.144531 C 9.949219 7.59375 9.152344 7.320312 8.371094 7.285156 Z M 8.371094 7.285156 " fill-opacity="1" fill-rule="nonzero"/><path fill="#9ce4fd" d="M 11.972656 15.828125 C 11.152344 15.886719 10.480469 16.425781 9.875 16.933594 C 9.375 17.300781 8.90625 17.824219 8.886719 18.476562 C 8.882812 19.214844 9.367188 19.84375 9.894531 20.3125 C 10.507812 20.882812 11.402344 21.226562 12.226562 20.972656 C 13.0625 20.765625 13.859375 20.144531 14.046875 19.269531 C 14.191406 18.445312 13.980469 17.601562 13.640625 16.855469 C 13.300781 16.269531 12.667969 15.808594 11.972656 15.828125 Z M 11.972656 15.828125 " fill-opacity="1" fill-rule="nonzero"/><g clip-path="url(#b254bf7c4e)"><path fill="#9ce4fd" d="M 2.59375 9.640625 C 2.65625 9.769531 2.691406 9.902344 2.703125 10.039062 C 2.71875 10.175781 2.707031 10.308594 2.671875 10.433594 C 2.636719 10.558594 2.578125 10.671875 2.5 10.765625 C 2.421875 10.863281 2.328125 10.9375 2.21875 10.988281 C 2.109375 11.039062 1.992188 11.0625 1.871094 11.058594 C 1.746094 11.058594 1.625 11.03125 1.507812 10.976562 C 1.386719 10.921875 1.28125 10.84375 1.183594 10.746094 C 1.089844 10.648438 1.011719 10.535156 0.953125 10.40625 C 0.894531 10.28125 0.859375 10.148438 0.84375 10.011719 C 0.832031 9.875 0.84375 9.742188 0.878906 9.617188 C 0.914062 9.488281 0.96875 9.378906 1.046875 9.28125 C 1.125 9.1875 1.21875 9.113281 1.328125 9.0625 C 1.4375 9.011719 1.554688 8.988281 1.679688 8.988281 C 1.800781 8.992188 1.925781 9.019531 2.042969 9.074219 C 2.160156 9.128906 2.269531 9.203125 2.363281 9.300781 C 2.460938 9.402344 2.539062 9.515625 2.59375 9.640625 Z M 2.59375 9.640625 " fill-opacity="1" fill-rule="nonzero"/></g><path fill="#9ce4fd" d="M 4.203125 7.007812 C 4.257812 7.179688 4.28125 7.359375 4.273438 7.535156 C 4.261719 7.714844 4.222656 7.878906 4.148438 8.035156 C 4.078125 8.1875 3.980469 8.320312 3.855469 8.425781 C 3.730469 8.53125 3.589844 8.605469 3.429688 8.648438 C 3.273438 8.691406 3.109375 8.695312 2.945312 8.667969 C 2.777344 8.640625 2.621094 8.578125 2.472656 8.484375 C 2.320312 8.390625 2.191406 8.269531 2.082031 8.121094 C 1.972656 7.976562 1.890625 7.816406 1.835938 7.640625 C 1.78125 7.464844 1.757812 7.289062 1.769531 7.109375 C 1.777344 6.933594 1.820312 6.765625 1.890625 6.613281 C 1.964844 6.457031 2.0625 6.328125 2.1875 6.222656 C 2.3125 6.117188 2.453125 6.042969 2.609375 6 C 2.769531 5.957031 2.929688 5.949219 3.097656 5.980469 C 3.261719 6.007812 3.421875 6.070312 3.570312 6.164062 C 3.71875 6.257812 3.851562 6.378906 3.960938 6.523438 C 4.070312 6.671875 4.152344 6.832031 4.203125 7.007812 Z M 4.203125 7.007812 " fill-opacity="1" fill-rule="nonzero"/><path fill="#9ce4fd" d="M 6.800781 5.046875 C 6.859375 5.246094 6.878906 5.445312 6.867188 5.644531 C 6.851562 5.84375 6.804688 6.03125 6.722656 6.207031 C 6.640625 6.378906 6.53125 6.527344 6.394531 6.644531 C 6.257812 6.765625 6.105469 6.847656 5.933594 6.894531 C 5.761719 6.941406 5.585938 6.949219 5.40625 6.914062 C 5.226562 6.882812 5.054688 6.8125 4.894531 6.707031 C 4.734375 6.597656 4.597656 6.460938 4.480469 6.296875 C 4.363281 6.132812 4.277344 5.949219 4.226562 5.753906 C 4.167969 5.554688 4.144531 5.355469 4.160156 5.15625 C 4.171875 4.953125 4.222656 4.765625 4.300781 4.59375 C 4.382812 4.421875 4.492188 4.273438 4.628906 4.15625 C 4.765625 4.035156 4.921875 3.953125 5.09375 3.90625 C 5.265625 3.859375 5.441406 3.851562 5.621094 3.882812 C 5.800781 3.917969 5.96875 3.988281 6.128906 4.09375 C 6.289062 4.203125 6.429688 4.335938 6.542969 4.503906 C 6.660156 4.667969 6.746094 4.847656 6.800781 5.046875 Z M 6.800781 5.046875 " fill-opacity="1" fill-rule="nonzero"/><path fill="#9ce4fd" d="M 11.316406 5.042969 C 11.257812 5.320312 11.15625 5.578125 11.007812 5.8125 C 10.859375 6.042969 10.675781 6.238281 10.460938 6.390625 C 10.246094 6.542969 10.011719 6.640625 9.761719 6.6875 C 9.511719 6.734375 9.265625 6.726562 9.019531 6.664062 C 8.773438 6.597656 8.550781 6.484375 8.347656 6.316406 C 8.140625 6.148438 7.976562 5.945312 7.84375 5.703125 C 7.714844 5.457031 7.632812 5.195312 7.59375 4.914062 C 7.554688 4.628906 7.570312 4.351562 7.628906 4.074219 C 7.6875 3.792969 7.792969 3.535156 7.941406 3.304688 C 8.089844 3.070312 8.273438 2.878906 8.488281 2.726562 C 8.703125 2.574219 8.9375 2.472656 9.1875 2.425781 C 9.4375 2.378906 9.683594 2.386719 9.929688 2.453125 C 10.175781 2.515625 10.398438 2.632812 10.601562 2.796875 C 10.804688 2.964844 10.972656 3.167969 11.101562 3.414062 C 11.234375 3.65625 11.316406 3.917969 11.355469 4.203125 C 11.390625 4.484375 11.378906 4.765625 11.316406 5.042969 Z M 11.316406 5.042969 " fill-opacity="1" fill-rule="nonzero"/><path fill="#9ce4fd" d="M 21.355469 13.011719 C 22.46875 12.644531 23.65625 13.019531 24.65625 13.535156 C 25.648438 13.894531 26.800781 14.214844 27.375 15.183594 C 27.917969 16.117188 27.722656 17.289062 27.257812 18.210938 C 26.761719 19.363281 26.050781 20.550781 24.867188 21.089844 C 23.753906 21.511719 22.523438 21.324219 21.40625 21.019531 C 20.242188 20.582031 19.503906 19.410156 19.296875 18.214844 C 19.007812 16.976562 18.980469 15.613281 19.53125 14.441406 C 19.929688 13.75 20.617188 13.265625 21.355469 13.011719 Z M 21.355469 13.011719 " fill-opacity="1" fill-rule="nonzero"/><g clip-path="url(#46a79eaace)"><path fill="#9ce4fd" d="M 20.261719 22.226562 C 21.066406 22.054688 21.863281 22.378906 22.585938 22.699219 C 23.164062 22.914062 23.761719 23.285156 23.960938 23.90625 C 24.167969 24.617188 23.878906 25.355469 23.5 25.953125 C 23.070312 26.671875 22.304688 27.25 21.445312 27.238281 C 20.585938 27.273438 19.644531 26.898438 19.222656 26.109375 C 18.855469 25.359375 18.824219 24.488281 18.945312 23.675781 C 19.109375 23.019531 19.589844 22.402344 20.261719 22.226562 Z M 20.261719 22.226562 " fill-opacity="1" fill-rule="nonzero"/></g><g clip-path="url(#aae839fc18)"><path fill="#9ce4fd" d="M 27.558594 13.664062 C 27.535156 13.800781 27.535156 13.9375 27.5625 14.074219 C 27.585938 14.210938 27.636719 14.332031 27.703125 14.445312 C 27.773438 14.554688 27.859375 14.648438 27.960938 14.71875 C 28.0625 14.785156 28.171875 14.832031 28.292969 14.851562 C 28.410156 14.867188 28.527344 14.859375 28.648438 14.824219 C 28.765625 14.785156 28.875 14.726562 28.972656 14.640625 C 29.070312 14.554688 29.152344 14.453125 29.21875 14.328125 C 29.285156 14.207031 29.324219 14.078125 29.347656 13.941406 C 29.367188 13.800781 29.367188 13.664062 29.339844 13.527344 C 29.316406 13.394531 29.269531 13.269531 29.199219 13.160156 C 29.128906 13.046875 29.046875 12.957031 28.945312 12.886719 C 28.84375 12.816406 28.730469 12.769531 28.613281 12.753906 C 28.492188 12.734375 28.375 12.742188 28.257812 12.78125 C 28.136719 12.816406 28.03125 12.878906 27.929688 12.960938 C 27.832031 13.046875 27.75 13.152344 27.683594 13.273438 C 27.621094 13.394531 27.578125 13.523438 27.558594 13.664062 Z M 27.558594 13.664062 " fill-opacity="1" fill-rule="nonzero"/></g><path fill="#9ce4fd" d="M 25.28125 11.582031 C 25.277344 11.765625 25.304688 11.941406 25.363281 12.109375 C 25.421875 12.277344 25.507812 12.425781 25.617188 12.554688 C 25.730469 12.679688 25.863281 12.777344 26.011719 12.847656 C 26.160156 12.914062 26.316406 12.945312 26.480469 12.941406 C 26.644531 12.9375 26.800781 12.898438 26.953125 12.824219 C 27.105469 12.753906 27.238281 12.648438 27.355469 12.515625 C 27.472656 12.382812 27.566406 12.230469 27.628906 12.0625 C 27.695312 11.890625 27.730469 11.710938 27.730469 11.527344 C 27.734375 11.34375 27.710938 11.167969 27.652344 11 C 27.59375 10.832031 27.507812 10.683594 27.394531 10.558594 C 27.28125 10.429688 27.152344 10.332031 27.003906 10.265625 C 26.851562 10.199219 26.695312 10.164062 26.535156 10.167969 C 26.371094 10.171875 26.214844 10.210938 26.0625 10.285156 C 25.910156 10.359375 25.773438 10.460938 25.65625 10.59375 C 25.539062 10.726562 25.449219 10.878906 25.382812 11.050781 C 25.320312 11.222656 25.285156 11.398438 25.28125 11.582031 Z M 25.28125 11.582031 " fill-opacity="1" fill-rule="nonzero"/><path fill="#9ce4fd" d="M 22.246094 10.425781 C 22.246094 10.628906 22.28125 10.828125 22.347656 11.015625 C 22.417969 11.207031 22.515625 11.371094 22.640625 11.515625 C 22.765625 11.660156 22.914062 11.769531 23.078125 11.847656 C 23.242188 11.921875 23.414062 11.960938 23.589844 11.957031 C 23.769531 11.953125 23.941406 11.910156 24.101562 11.828125 C 24.265625 11.75 24.410156 11.632812 24.535156 11.484375 C 24.660156 11.339844 24.753906 11.167969 24.820312 10.976562 C 24.886719 10.785156 24.917969 10.589844 24.914062 10.382812 C 24.914062 10.175781 24.882812 9.980469 24.8125 9.789062 C 24.742188 9.601562 24.648438 9.433594 24.519531 9.292969 C 24.394531 9.148438 24.25 9.039062 24.085938 8.960938 C 23.917969 8.886719 23.75 8.847656 23.570312 8.851562 C 23.394531 8.855469 23.222656 8.898438 23.058594 8.976562 C 22.894531 9.058594 22.75 9.175781 22.625 9.320312 C 22.503906 9.46875 22.40625 9.640625 22.339844 9.832031 C 22.273438 10.023438 22.242188 10.21875 22.246094 10.425781 Z M 22.246094 10.425781 " fill-opacity="1" fill-rule="nonzero"/><path fill="#9ce4fd" d="M 17.90625 11.683594 C 18.039062 11.933594 18.210938 12.152344 18.417969 12.332031 C 18.625 12.515625 18.851562 12.648438 19.101562 12.734375 C 19.351562 12.820312 19.601562 12.851562 19.855469 12.828125 C 20.109375 12.804688 20.34375 12.726562 20.5625 12.597656 C 20.78125 12.464844 20.964844 12.292969 21.113281 12.074219 C 21.261719 11.859375 21.367188 11.613281 21.421875 11.34375 C 21.480469 11.074219 21.488281 10.800781 21.445312 10.515625 C 21.402344 10.234375 21.316406 9.96875 21.179688 9.71875 C 21.042969 9.46875 20.875 9.25 20.667969 9.070312 C 20.460938 8.886719 20.230469 8.75 19.980469 8.664062 C 19.734375 8.578125 19.480469 8.546875 19.226562 8.574219 C 18.976562 8.597656 18.738281 8.675781 18.523438 8.804688 C 18.304688 8.9375 18.121094 9.109375 17.972656 9.328125 C 17.820312 9.542969 17.71875 9.785156 17.660156 10.058594 C 17.601562 10.328125 17.59375 10.601562 17.636719 10.882812 C 17.679688 11.164062 17.769531 11.433594 17.90625 11.683594 Z M 17.90625 11.683594 " fill-opacity="1" fill-rule="nonzero"/></svg>