<svg xmlns="http://www.w3.org/2000/svg" xmlns:xlink="http://www.w3.org/1999/xlink" width="283" zoomAndPan="magnify" viewBox="0 0 212.25 48" height="64" preserveAspectRatio="xMidYMid meet" version="1.0"><defs><g/><clipPath id="504b600dcc"><path d="M 8.207031 12 L 12 12 L 12 15 L 8.207031 15 Z M 8.207031 12 " clip-rule="nonzero"/></clipPath><clipPath id="1307151645"><path d="M 33 29 L 41 29 L 41 36.851562 L 33 36.851562 Z M 33 29 " clip-rule="nonzero"/></clipPath><clipPath id="473f3d1f25"><path d="M 45 17 L 47.878906 17 L 47.878906 20 L 45 20 Z M 45 17 " clip-rule="nonzero"/></clipPath></defs><path fill="#f195ce" d="M 18.980469 9.683594 C 17.386719 9.625 15.96875 10.566406 14.851562 11.617188 C 13.683594 12.464844 12.292969 13.320312 11.902344 14.804688 C 11.546875 16.226562 12.246094 17.683594 13.203125 18.710938 C 14.289062 20.03125 15.675781 21.308594 17.433594 21.5625 C 19.054688 21.691406 20.597656 20.980469 21.945312 20.15625 C 23.308594 19.144531 23.835938 17.332031 23.65625 15.695312 C 23.566406 13.96875 23.085938 12.175781 21.921875 10.851562 C 21.136719 10.105469 20.050781 9.734375 18.980469 9.683594 Z M 18.980469 9.683594 " fill-opacity="1" fill-rule="nonzero"/><path fill="#f195ce" d="M 23.90625 21.296875 C 22.785156 21.378906 21.863281 22.105469 21.035156 22.800781 C 20.359375 23.296875 19.714844 24.011719 19.6875 24.894531 C 19.683594 25.898438 20.34375 26.757812 21.066406 27.390625 C 21.902344 28.167969 23.125 28.636719 24.253906 28.292969 C 25.394531 28.007812 26.484375 27.164062 26.742188 25.972656 C 26.941406 24.855469 26.652344 23.707031 26.183594 22.691406 C 25.71875 21.894531 24.859375 21.269531 23.90625 21.296875 Z M 23.90625 21.296875 " fill-opacity="1" fill-rule="nonzero"/><g clip-path="url(#504b600dcc)"><path fill="#f195ce" d="M 11.089844 12.886719 C 11.171875 13.058594 11.222656 13.238281 11.238281 13.425781 C 11.257812 13.613281 11.242188 13.792969 11.191406 13.964844 C 11.144531 14.132812 11.066406 14.285156 10.960938 14.417969 C 10.851562 14.546875 10.726562 14.644531 10.574219 14.714844 C 10.425781 14.785156 10.265625 14.816406 10.097656 14.816406 C 9.929688 14.8125 9.761719 14.773438 9.601562 14.699219 C 9.4375 14.628906 9.292969 14.523438 9.160156 14.390625 C 9.03125 14.253906 8.925781 14.101562 8.847656 13.929688 C 8.765625 13.753906 8.714844 13.574219 8.695312 13.390625 C 8.679688 13.203125 8.695312 13.023438 8.742188 12.851562 C 8.792969 12.679688 8.867188 12.53125 8.976562 12.398438 C 9.082031 12.269531 9.210938 12.167969 9.359375 12.101562 C 9.511719 12.03125 9.667969 11.996094 9.835938 12 C 10.007812 12.003906 10.171875 12.039062 10.335938 12.113281 C 10.496094 12.1875 10.644531 12.292969 10.773438 12.425781 C 10.90625 12.558594 11.011719 12.714844 11.089844 12.886719 Z M 11.089844 12.886719 " fill-opacity="1" fill-rule="nonzero"/></g><path fill="#f195ce" d="M 13.289062 9.304688 C 13.363281 9.542969 13.394531 9.785156 13.382812 10.027344 C 13.371094 10.269531 13.3125 10.492188 13.214844 10.703125 C 13.117188 10.914062 12.980469 11.089844 12.808594 11.234375 C 12.640625 11.378906 12.445312 11.480469 12.230469 11.535156 C 12.015625 11.59375 11.792969 11.601562 11.566406 11.5625 C 11.339844 11.527344 11.125 11.441406 10.917969 11.3125 C 10.714844 11.183594 10.539062 11.023438 10.386719 10.824219 C 10.238281 10.625 10.125 10.40625 10.054688 10.167969 C 9.976562 9.929688 9.945312 9.6875 9.960938 9.449219 C 9.972656 9.207031 10.027344 8.980469 10.128906 8.769531 C 10.226562 8.5625 10.363281 8.382812 10.53125 8.238281 C 10.703125 8.09375 10.894531 7.992188 11.109375 7.9375 C 11.328125 7.878906 11.546875 7.871094 11.773438 7.910156 C 12.003906 7.945312 12.21875 8.03125 12.421875 8.160156 C 12.628906 8.289062 12.804688 8.453125 12.953125 8.648438 C 13.105469 8.847656 13.214844 9.066406 13.289062 9.304688 Z M 13.289062 9.304688 " fill-opacity="1" fill-rule="nonzero"/><path fill="#f195ce" d="M 16.835938 6.640625 C 16.914062 6.910156 16.945312 7.179688 16.925781 7.453125 C 16.90625 7.726562 16.84375 7.980469 16.730469 8.21875 C 16.621094 8.453125 16.472656 8.652344 16.285156 8.8125 C 16.097656 8.976562 15.886719 9.089844 15.652344 9.152344 C 15.417969 9.214844 15.175781 9.226562 14.929688 9.183594 C 14.6875 9.136719 14.453125 9.042969 14.234375 8.898438 C 14.015625 8.75 13.824219 8.566406 13.667969 8.339844 C 13.507812 8.117188 13.390625 7.871094 13.316406 7.601562 C 13.238281 7.332031 13.210938 7.0625 13.226562 6.789062 C 13.246094 6.515625 13.3125 6.261719 13.421875 6.027344 C 13.535156 5.789062 13.683594 5.59375 13.871094 5.429688 C 14.058594 5.265625 14.269531 5.15625 14.503906 5.089844 C 14.738281 5.027344 14.976562 5.015625 15.222656 5.0625 C 15.46875 5.105469 15.703125 5.199219 15.921875 5.347656 C 16.140625 5.492188 16.328125 5.675781 16.488281 5.902344 C 16.648438 6.125 16.761719 6.375 16.835938 6.640625 Z M 16.835938 6.640625 " fill-opacity="1" fill-rule="nonzero"/><path fill="#f195ce" d="M 23.011719 6.636719 C 22.929688 7.015625 22.789062 7.363281 22.585938 7.679688 C 22.382812 7.996094 22.132812 8.257812 21.839844 8.464844 C 21.542969 8.671875 21.226562 8.808594 20.886719 8.875 C 20.542969 8.9375 20.203125 8.925781 19.871094 8.839844 C 19.535156 8.75 19.226562 8.59375 18.949219 8.367188 C 18.671875 8.140625 18.441406 7.863281 18.265625 7.53125 C 18.085938 7.199219 17.972656 6.84375 17.921875 6.460938 C 17.871094 6.074219 17.886719 5.695312 17.972656 5.316406 C 18.050781 4.9375 18.191406 4.589844 18.394531 4.273438 C 18.597656 3.953125 18.847656 3.691406 19.144531 3.484375 C 19.4375 3.277344 19.757812 3.144531 20.097656 3.078125 C 20.4375 3.015625 20.777344 3.027344 21.113281 3.113281 C 21.449219 3.203125 21.753906 3.359375 22.03125 3.585938 C 22.3125 3.8125 22.539062 4.089844 22.71875 4.421875 C 22.894531 4.75 23.011719 5.109375 23.0625 5.492188 C 23.113281 5.875 23.09375 6.257812 23.011719 6.636719 Z M 23.011719 6.636719 " fill-opacity="1" fill-rule="nonzero"/><path fill="#f195ce" d="M 36.730469 17.46875 C 38.25 16.96875 39.875 17.480469 41.238281 18.179688 C 42.59375 18.667969 44.167969 19.105469 44.957031 20.421875 C 45.695312 21.6875 45.429688 23.28125 44.796875 24.53125 C 44.121094 26.105469 43.144531 27.714844 41.527344 28.449219 C 40.007812 29.023438 38.328125 28.769531 36.800781 28.351562 C 35.210938 27.761719 34.199219 26.164062 33.917969 24.542969 C 33.519531 22.859375 33.484375 21.003906 34.234375 19.410156 C 34.777344 18.472656 35.71875 17.816406 36.730469 17.46875 Z M 36.730469 17.46875 " fill-opacity="1" fill-rule="nonzero"/><g clip-path="url(#1307151645)"><path fill="#f195ce" d="M 35.234375 29.992188 C 36.335938 29.761719 37.421875 30.203125 38.410156 30.640625 C 39.199219 30.929688 40.019531 31.433594 40.289062 32.277344 C 40.570312 33.242188 40.175781 34.25 39.660156 35.058594 C 39.074219 36.035156 38.027344 36.824219 36.851562 36.808594 C 35.675781 36.851562 34.390625 36.34375 33.8125 35.273438 C 33.3125 34.253906 33.269531 33.070312 33.4375 31.964844 C 33.660156 31.070312 34.3125 30.230469 35.234375 29.992188 Z M 35.234375 29.992188 " fill-opacity="1" fill-rule="nonzero"/></g><g clip-path="url(#473f3d1f25)"><path fill="#f195ce" d="M 45.203125 18.355469 C 45.175781 18.542969 45.175781 18.730469 45.210938 18.914062 C 45.246094 19.097656 45.3125 19.265625 45.40625 19.414062 C 45.5 19.566406 45.617188 19.691406 45.753906 19.785156 C 45.894531 19.882812 46.046875 19.941406 46.207031 19.96875 C 46.371094 19.992188 46.53125 19.980469 46.695312 19.929688 C 46.855469 19.882812 47.003906 19.796875 47.140625 19.683594 C 47.273438 19.566406 47.386719 19.425781 47.476562 19.261719 C 47.5625 19.09375 47.621094 18.917969 47.648438 18.730469 C 47.679688 18.542969 47.679688 18.355469 47.644531 18.171875 C 47.609375 17.988281 47.542969 17.820312 47.449219 17.667969 C 47.355469 17.515625 47.238281 17.394531 47.101562 17.296875 C 46.960938 17.203125 46.808594 17.140625 46.648438 17.117188 C 46.484375 17.089844 46.320312 17.105469 46.160156 17.152344 C 46 17.203125 45.851562 17.285156 45.714844 17.402344 C 45.578125 17.519531 45.46875 17.660156 45.378906 17.824219 C 45.292969 17.988281 45.234375 18.164062 45.203125 18.355469 Z M 45.203125 18.355469 " fill-opacity="1" fill-rule="nonzero"/></g><path fill="#f195ce" d="M 42.097656 15.523438 C 42.089844 15.773438 42.125 16.011719 42.207031 16.242188 C 42.285156 16.472656 42.402344 16.671875 42.554688 16.847656 C 42.710938 17.019531 42.886719 17.152344 43.09375 17.242188 C 43.296875 17.335938 43.507812 17.378906 43.730469 17.375 C 43.957031 17.367188 44.171875 17.316406 44.378906 17.214844 C 44.585938 17.117188 44.769531 16.976562 44.929688 16.796875 C 45.089844 16.613281 45.214844 16.410156 45.304688 16.175781 C 45.394531 15.941406 45.441406 15.703125 45.441406 15.453125 C 45.449219 15.203125 45.414062 14.964844 45.332031 14.734375 C 45.253906 14.507812 45.136719 14.304688 44.984375 14.132812 C 44.828125 13.957031 44.652344 13.824219 44.445312 13.734375 C 44.242188 13.644531 44.03125 13.601562 43.804688 13.605469 C 43.582031 13.609375 43.367188 13.660156 43.160156 13.761719 C 42.953125 13.863281 42.769531 14.003906 42.609375 14.183594 C 42.449219 14.363281 42.324219 14.570312 42.234375 14.800781 C 42.144531 15.035156 42.097656 15.273438 42.097656 15.523438 Z M 42.097656 15.523438 " fill-opacity="1" fill-rule="nonzero"/><path fill="#f195ce" d="M 37.945312 13.953125 C 37.945312 14.230469 37.992188 14.5 38.085938 14.757812 C 38.179688 15.015625 38.3125 15.242188 38.484375 15.4375 C 38.660156 15.632812 38.859375 15.78125 39.082031 15.882812 C 39.308594 15.988281 39.542969 16.039062 39.785156 16.035156 C 40.027344 16.03125 40.261719 15.972656 40.484375 15.863281 C 40.707031 15.75 40.90625 15.59375 41.074219 15.394531 C 41.246094 15.195312 41.375 14.964844 41.464844 14.703125 C 41.554688 14.445312 41.597656 14.175781 41.59375 13.894531 C 41.59375 13.617188 41.546875 13.347656 41.453125 13.089844 C 41.359375 12.832031 41.226562 12.605469 41.054688 12.410156 C 40.882812 12.214844 40.683594 12.066406 40.457031 11.964844 C 40.234375 11.859375 40 11.808594 39.757812 11.8125 C 39.511719 11.816406 39.28125 11.875 39.054688 11.984375 C 38.832031 12.097656 38.636719 12.253906 38.464844 12.453125 C 38.296875 12.652344 38.167969 12.882812 38.078125 13.144531 C 37.984375 13.402344 37.941406 13.671875 37.945312 13.953125 Z M 37.945312 13.953125 " fill-opacity="1" fill-rule="nonzero"/><path fill="#f195ce" d="M 32.015625 15.660156 C 32.195312 16.003906 32.429688 16.296875 32.714844 16.546875 C 32.996094 16.792969 33.308594 16.976562 33.648438 17.09375 C 33.988281 17.210938 34.332031 17.253906 34.679688 17.21875 C 35.023438 17.1875 35.347656 17.082031 35.644531 16.902344 C 35.941406 16.726562 36.195312 16.488281 36.398438 16.195312 C 36.601562 15.898438 36.742188 15.570312 36.824219 15.203125 C 36.902344 14.835938 36.910156 14.460938 36.855469 14.078125 C 36.796875 13.695312 36.671875 13.332031 36.488281 12.992188 C 36.304688 12.652344 36.070312 12.355469 35.789062 12.109375 C 35.503906 11.859375 35.191406 11.675781 34.851562 11.558594 C 34.511719 11.445312 34.167969 11.402344 33.820312 11.433594 C 33.476562 11.46875 33.15625 11.574219 32.855469 11.75 C 32.558594 11.929688 32.308594 12.164062 32.105469 12.460938 C 31.898438 12.753906 31.757812 13.085938 31.679688 13.453125 C 31.601562 13.820312 31.589844 14.195312 31.648438 14.578125 C 31.707031 14.960938 31.828125 15.320312 32.015625 15.660156 Z M 32.015625 15.660156 " fill-opacity="1" fill-rule="nonzero"/><g fill="#9ce4fd" fill-opacity="1"><g transform="translate(48.976813, 35.44469)"><g><path d="M 1.925781 -22.460938 L 1.925781 0 L 10.269531 0 L 10.269531 -6.417969 L 17.007812 -6.417969 L 17.007812 -12.835938 L 10.269531 -12.835938 L 10.269531 -15.402344 L 18.609375 -15.402344 L 18.609375 -22.460938 Z M 1.925781 -22.460938 "/></g></g></g><g fill="#9ce4fd" fill-opacity="1"><g transform="translate(68.228118, 35.44469)"><g><path d="M 10.269531 -8.023438 L 18.609375 -8.023438 L 18.609375 -14.4375 L 10.269531 -14.4375 L 10.269531 -16.042969 L 19.253906 -16.042969 L 19.253906 -22.460938 L 1.925781 -22.460938 L 1.925781 0 L 19.894531 0 L 19.894531 -6.417969 L 10.269531 -6.417969 Z M 10.269531 -8.023438 "/></g></g></g><g fill="#9ce4fd" fill-opacity="1"><g transform="translate(89.083692, 35.44469)"><g><path d="M 10.269531 -22.460938 L 1.925781 -22.460938 L 1.925781 0 L 18.929688 0 L 18.929688 -7.378906 L 10.269531 -7.378906 Z M 10.269531 -22.460938 "/></g></g></g><g fill="#9ce4fd" fill-opacity="1"><g transform="translate(108.655848, 35.44469)"><g><path d="M 10.269531 -22.460938 L 1.925781 -22.460938 L 1.925781 0 L 10.269531 0 Z M 10.269531 -22.460938 "/></g></g></g><g fill="#9ce4fd" fill-opacity="1"><g transform="translate(120.84834, 35.44469)"><g><path d="M 1.285156 -11.230469 C 1.285156 -4.652344 6.417969 0.480469 13.15625 0.480469 C 19.253906 0.480469 22.140625 -3.046875 22.140625 -3.046875 L 18.289062 -9.144531 C 18.289062 -9.144531 16.363281 -7.378906 14.117188 -7.378906 C 11.871094 -7.378906 10.269531 -8.984375 10.269531 -11.230469 C 10.269531 -13.476562 11.871094 -15.082031 14.117188 -15.082031 C 16.363281 -15.082031 18.289062 -13.316406 18.289062 -13.316406 L 22.140625 -19.414062 C 22.140625 -19.414062 19.253906 -22.941406 13.15625 -22.941406 C 6.417969 -22.941406 1.285156 -17.808594 1.285156 -11.230469 Z M 1.285156 -11.230469 "/></g></g></g><g fill="#9ce4fd" fill-opacity="1"><g transform="translate(143.629045, 35.44469)"><g><path d="M 10.269531 -22.460938 L 1.925781 -22.460938 L 1.925781 0 L 10.269531 0 Z M 10.269531 -22.460938 "/></g></g></g><g fill="#9ce4fd" fill-opacity="1"><g transform="translate(155.821537, 35.44469)"><g><path d="M 0.640625 -22.460938 L 0.640625 -15.082031 L 6.738281 -15.082031 L 6.738281 0 L 15.082031 0 L 15.082031 -15.082031 L 21.175781 -15.082031 L 21.175781 -22.460938 Z M 0.640625 -22.460938 "/></g></g></g><g fill="#9ce4fd" fill-opacity="1"><g transform="translate(177.639677, 35.44469)"><g><path d="M 8.984375 -22.460938 L -0.640625 -22.460938 L 7.058594 -8.664062 L 7.058594 0 L 15.402344 0 L 15.402344 -8.664062 L 23.101562 -22.460938 L 13.476562 -22.460938 L 11.230469 -16.042969 Z M 8.984375 -22.460938 "/></g></g></g></svg>