<svg xmlns="http://www.w3.org/2000/svg" xmlns:xlink="http://www.w3.org/1999/xlink" width="500" zoomAndPan="magnify" viewBox="0 0 375 374.999991" height="500" preserveAspectRatio="xMidYMid meet" version="1.0"><defs><g/><clipPath id="64ba2b5945"><path d="M 104 232 L 129 232 L 129 256.152344 L 104 256.152344 Z M 104 232 " clip-rule="nonzero"/></clipPath><clipPath id="cd971b00e1"><path d="M 154.078125 236 L 175 236 L 175 260 L 154.078125 260 Z M 154.078125 236 " clip-rule="nonzero"/></clipPath><clipPath id="6dab10d803"><path d="M 342 215 L 348.929688 215 L 348.929688 222 L 342 222 Z M 342 215 " clip-rule="nonzero"/></clipPath><clipPath id="186e9808d4"><path d="M 320 176.128906 L 326 176.128906 L 326 182 L 320 182 Z M 320 176.128906 " clip-rule="nonzero"/></clipPath><clipPath id="a495e3afa2"><path d="M 184 257 L 191 257 L 191 263.8125 L 184 263.8125 Z M 184 257 " clip-rule="nonzero"/></clipPath></defs><path fill="#9ce4fd" d="M 55.121094 162.625 C 49.632812 162.425781 44.757812 165.675781 40.914062 169.289062 C 36.90625 172.203125 32.128906 175.148438 30.785156 180.261719 C 29.558594 185.152344 31.964844 190.164062 35.25 193.699219 C 38.988281 198.246094 43.75 202.644531 49.796875 203.523438 C 55.371094 203.960938 60.671875 201.515625 65.3125 198.679688 C 70 195.195312 71.8125 188.957031 71.1875 183.324219 C 70.882812 177.375 69.234375 171.207031 65.230469 166.65625 C 62.535156 164.078125 58.800781 162.800781 55.121094 162.625 Z M 55.121094 162.625 " fill-opacity="1" fill-rule="nonzero"/><path fill="#9ce4fd" d="M 72.054688 202.605469 C 68.199219 202.886719 65.03125 205.390625 62.183594 207.777344 C 59.851562 209.492188 57.636719 211.945312 57.542969 214.992188 C 57.539062 218.449219 59.808594 221.402344 62.292969 223.585938 C 65.160156 226.253906 69.367188 227.867188 73.242188 226.683594 C 77.167969 225.710938 80.914062 222.796875 81.800781 218.699219 C 82.480469 214.855469 81.484375 210.898438 79.882812 207.410156 C 78.285156 204.664062 75.324219 202.515625 72.054688 202.605469 Z M 72.054688 202.605469 " fill-opacity="1" fill-rule="nonzero"/><path fill="#9ce4fd" d="M 27.988281 173.660156 C 28.125 173.953125 28.238281 174.257812 28.324219 174.570312 C 28.410156 174.878906 28.46875 175.195312 28.5 175.511719 C 28.53125 175.832031 28.53125 176.144531 28.503906 176.457031 C 28.480469 176.765625 28.425781 177.070312 28.34375 177.359375 C 28.261719 177.652344 28.152344 177.929688 28.015625 178.195312 C 27.882812 178.457031 27.722656 178.699219 27.542969 178.921875 C 27.359375 179.144531 27.15625 179.339844 26.933594 179.515625 C 26.710938 179.6875 26.472656 179.832031 26.21875 179.953125 C 25.964844 180.070312 25.699219 180.15625 25.421875 180.214844 C 25.148438 180.273438 24.867188 180.300781 24.578125 180.296875 C 24.289062 180.292969 24.003906 180.257812 23.714844 180.191406 C 23.429688 180.125 23.148438 180.027344 22.871094 179.902344 C 22.59375 179.773438 22.328125 179.621094 22.074219 179.441406 C 21.820312 179.261719 21.582031 179.054688 21.359375 178.828125 C 21.136719 178.597656 20.933594 178.351562 20.75 178.085938 C 20.566406 177.816406 20.410156 177.535156 20.273438 177.238281 C 20.136719 176.945312 20.023438 176.644531 19.9375 176.332031 C 19.851562 176.019531 19.792969 175.703125 19.761719 175.386719 C 19.730469 175.070312 19.730469 174.753906 19.757812 174.441406 C 19.78125 174.132812 19.835938 173.832031 19.917969 173.539062 C 20 173.246094 20.109375 172.96875 20.246094 172.707031 C 20.378906 172.441406 20.539062 172.199219 20.71875 171.980469 C 20.902344 171.757812 21.105469 171.558594 21.328125 171.386719 C 21.550781 171.210938 21.789062 171.066406 22.042969 170.949219 C 22.296875 170.828125 22.5625 170.742188 22.839844 170.683594 C 23.113281 170.625 23.394531 170.597656 23.683594 170.601562 C 23.972656 170.605469 24.257812 170.644531 24.546875 170.710938 C 24.832031 170.777344 25.113281 170.871094 25.390625 170.996094 C 25.667969 171.125 25.933594 171.277344 26.1875 171.457031 C 26.441406 171.636719 26.679688 171.84375 26.902344 172.070312 C 27.125 172.300781 27.328125 172.546875 27.511719 172.816406 C 27.695312 173.082031 27.851562 173.363281 27.988281 173.660156 Z M 27.988281 173.660156 " fill-opacity="1" fill-rule="nonzero"/><path fill="#9ce4fd" d="M 35.546875 161.328125 C 35.675781 161.734375 35.769531 162.144531 35.820312 162.5625 C 35.875 162.980469 35.894531 163.394531 35.871094 163.808594 C 35.847656 164.21875 35.789062 164.621094 35.691406 165.015625 C 35.59375 165.40625 35.460938 165.78125 35.292969 166.136719 C 35.125 166.496094 34.921875 166.828125 34.6875 167.132812 C 34.453125 167.441406 34.191406 167.71875 33.902344 167.964844 C 33.613281 168.210938 33.300781 168.421875 32.964844 168.597656 C 32.628906 168.773438 32.28125 168.910156 31.914062 169.007812 C 31.546875 169.105469 31.171875 169.160156 30.785156 169.179688 C 30.402344 169.195312 30.015625 169.167969 29.628906 169.105469 C 29.242188 169.039062 28.863281 168.933594 28.488281 168.789062 C 28.113281 168.644531 27.75 168.460938 27.402344 168.242188 C 27.054688 168.023438 26.726562 167.769531 26.421875 167.488281 C 26.113281 167.203125 25.832031 166.890625 25.574219 166.550781 C 25.320312 166.214844 25.09375 165.855469 24.902344 165.472656 C 24.707031 165.09375 24.550781 164.699219 24.425781 164.292969 C 24.296875 163.890625 24.207031 163.476562 24.152344 163.0625 C 24.097656 162.644531 24.082031 162.230469 24.101562 161.816406 C 24.125 161.402344 24.183594 161 24.28125 160.609375 C 24.378906 160.21875 24.511719 159.84375 24.679688 159.484375 C 24.847656 159.128906 25.050781 158.796875 25.285156 158.488281 C 25.519531 158.183594 25.78125 157.90625 26.070312 157.660156 C 26.359375 157.414062 26.671875 157.203125 27.007812 157.027344 C 27.34375 156.851562 27.695312 156.714844 28.058594 156.617188 C 28.425781 156.519531 28.800781 156.460938 29.1875 156.445312 C 29.570312 156.429688 29.957031 156.453125 30.34375 156.519531 C 30.730469 156.585938 31.113281 156.691406 31.484375 156.835938 C 31.859375 156.980469 32.222656 157.164062 32.570312 157.382812 C 32.917969 157.601562 33.246094 157.851562 33.554688 158.136719 C 33.859375 158.421875 34.144531 158.734375 34.398438 159.070312 C 34.652344 159.410156 34.878906 159.769531 35.070312 160.148438 C 35.265625 160.53125 35.425781 160.921875 35.546875 161.328125 Z M 35.546875 161.328125 " fill-opacity="1" fill-rule="nonzero"/><path fill="#9ce4fd" d="M 47.75 152.164062 C 47.878906 152.621094 47.972656 153.082031 48.023438 153.554688 C 48.074219 154.023438 48.085938 154.492188 48.054688 154.957031 C 48.023438 155.421875 47.949219 155.875 47.835938 156.316406 C 47.726562 156.757812 47.574219 157.179688 47.382812 157.582031 C 47.195312 157.984375 46.96875 158.355469 46.710938 158.703125 C 46.453125 159.046875 46.164062 159.359375 45.84375 159.636719 C 45.527344 159.910156 45.183594 160.148438 44.816406 160.34375 C 44.453125 160.542969 44.070312 160.695312 43.671875 160.800781 C 43.269531 160.910156 42.863281 160.972656 42.445312 160.992188 C 42.03125 161.007812 41.613281 160.976562 41.195312 160.902344 C 40.777344 160.828125 40.367188 160.707031 39.960938 160.542969 C 39.558594 160.375 39.171875 160.171875 38.796875 159.921875 C 38.425781 159.671875 38.074219 159.390625 37.746094 159.066406 C 37.417969 158.746094 37.117188 158.394531 36.847656 158.011719 C 36.578125 157.628906 36.339844 157.222656 36.136719 156.792969 C 35.933594 156.363281 35.769531 155.917969 35.644531 155.460938 C 35.511719 155.003906 35.421875 154.539062 35.367188 154.070312 C 35.316406 153.597656 35.308594 153.132812 35.339844 152.667969 C 35.371094 152.203125 35.441406 151.746094 35.554688 151.304688 C 35.667969 150.863281 35.820312 150.441406 36.007812 150.039062 C 36.199219 149.640625 36.421875 149.265625 36.679688 148.921875 C 36.941406 148.574219 37.230469 148.261719 37.546875 147.988281 C 37.867188 147.710938 38.210938 147.476562 38.574219 147.277344 C 38.941406 147.082031 39.324219 146.929688 39.722656 146.820312 C 40.121094 146.710938 40.53125 146.648438 40.945312 146.632812 C 41.363281 146.617188 41.78125 146.644531 42.199219 146.71875 C 42.617188 146.796875 43.027344 146.917969 43.429688 147.082031 C 43.832031 147.246094 44.222656 147.453125 44.59375 147.699219 C 44.96875 147.949219 45.320312 148.234375 45.648438 148.554688 C 45.976562 148.878906 46.273438 149.230469 46.542969 149.613281 C 46.816406 149.996094 47.050781 150.402344 47.253906 150.832031 C 47.457031 151.257812 47.621094 151.703125 47.75 152.164062 Z M 47.75 152.164062 " fill-opacity="1" fill-rule="nonzero"/><path fill="#9ce4fd" d="M 68.96875 152.136719 C 68.835938 152.785156 68.644531 153.410156 68.398438 154.015625 C 68.152344 154.621094 67.855469 155.191406 67.511719 155.734375 C 67.164062 156.273438 66.777344 156.773438 66.34375 157.230469 C 65.910156 157.683594 65.445312 158.089844 64.941406 158.441406 C 64.441406 158.792969 63.914062 159.085938 63.363281 159.324219 C 62.808594 159.558594 62.242188 159.730469 61.660156 159.839844 C 61.082031 159.949219 60.496094 159.996094 59.910156 159.976562 C 59.320312 159.957031 58.742188 159.871094 58.171875 159.71875 C 57.601562 159.570312 57.050781 159.359375 56.515625 159.085938 C 55.984375 158.8125 55.480469 158.484375 55.007812 158.097656 C 54.535156 157.710938 54.097656 157.277344 53.703125 156.792969 C 53.308594 156.308594 52.957031 155.785156 52.652344 155.222656 C 52.351562 154.660156 52.101562 154.066406 51.902344 153.445312 C 51.703125 152.824219 51.558594 152.1875 51.472656 151.535156 C 51.386719 150.878906 51.359375 150.222656 51.386719 149.558594 C 51.417969 148.898438 51.503906 148.242188 51.648438 147.597656 C 51.785156 146.953125 51.972656 146.328125 52.21875 145.722656 C 52.464844 145.117188 52.761719 144.542969 53.105469 144.003906 C 53.453125 143.460938 53.839844 142.964844 54.273438 142.507812 C 54.707031 142.050781 55.171875 141.648438 55.675781 141.296875 C 56.175781 140.941406 56.703125 140.648438 57.253906 140.414062 C 57.808594 140.179688 58.375 140.003906 58.957031 139.894531 C 59.535156 139.785156 60.121094 139.742188 60.707031 139.761719 C 61.296875 139.78125 61.875 139.867188 62.445312 140.015625 C 63.015625 140.164062 63.570312 140.375 64.101562 140.648438 C 64.632812 140.921875 65.136719 141.253906 65.609375 141.636719 C 66.082031 142.023438 66.519531 142.460938 66.914062 142.945312 C 67.308594 143.425781 67.660156 143.953125 67.964844 144.515625 C 68.265625 145.078125 68.515625 145.671875 68.714844 146.289062 C 68.914062 146.910156 69.058594 147.546875 69.144531 148.203125 C 69.230469 148.855469 69.257812 149.515625 69.230469 150.175781 C 69.199219 150.839844 69.113281 151.492188 68.96875 152.136719 Z M 68.96875 152.136719 " fill-opacity="1" fill-rule="nonzero"/><path fill="#9ce4fd" d="M 116.144531 189.425781 C 121.359375 187.707031 126.945312 189.472656 131.640625 191.875 C 136.300781 193.558594 141.710938 195.058594 144.425781 199.59375 C 146.964844 203.953125 146.042969 209.433594 143.871094 213.746094 C 141.542969 219.152344 138.195312 224.703125 132.628906 227.230469 C 127.398438 229.199219 121.625 228.324219 116.382812 226.894531 C 110.910156 224.851562 107.433594 219.363281 106.464844 213.78125 C 105.105469 207.980469 104.972656 201.597656 107.554688 196.109375 C 109.425781 192.886719 112.660156 190.617188 116.140625 189.425781 Z M 116.144531 189.425781 " fill-opacity="1" fill-rule="nonzero"/><g clip-path="url(#64ba2b5945)"><path fill="#9ce4fd" d="M 110.996094 232.542969 C 114.777344 231.738281 118.515625 233.261719 121.914062 234.761719 C 124.632812 235.757812 127.441406 237.5 128.375 240.398438 C 129.34375 243.722656 127.984375 247.1875 126.207031 249.976562 C 124.191406 253.335938 120.601562 256.054688 116.550781 255.996094 C 112.507812 256.15625 108.101562 254.402344 106.109375 250.710938 C 104.386719 247.207031 104.242188 243.128906 104.8125 239.332031 C 105.582031 236.253906 107.828125 233.363281 110.996094 232.542969 Z M 110.996094 232.542969 " fill-opacity="1" fill-rule="nonzero"/></g><path fill="#9ce4fd" d="M 145.273438 192.476562 C 145.222656 192.796875 145.199219 193.117188 145.203125 193.441406 C 145.207031 193.765625 145.238281 194.085938 145.296875 194.398438 C 145.355469 194.710938 145.441406 195.015625 145.554688 195.304688 C 145.664062 195.597656 145.800781 195.871094 145.960938 196.128906 C 146.121094 196.386719 146.304688 196.625 146.507812 196.839844 C 146.707031 197.054688 146.929688 197.242188 147.164062 197.40625 C 147.402344 197.566406 147.652344 197.703125 147.914062 197.804688 C 148.175781 197.910156 148.445312 197.984375 148.722656 198.027344 C 149 198.070312 149.277344 198.082031 149.558594 198.058594 C 149.839844 198.039062 150.121094 197.984375 150.394531 197.902344 C 150.667969 197.816406 150.933594 197.703125 151.191406 197.558594 C 151.449219 197.414062 151.695312 197.246094 151.925781 197.046875 C 152.15625 196.847656 152.367188 196.628906 152.5625 196.382812 C 152.757812 196.140625 152.929688 195.875 153.078125 195.59375 C 153.230469 195.3125 153.355469 195.019531 153.457031 194.710938 C 153.558594 194.40625 153.632812 194.089844 153.679688 193.769531 C 153.730469 193.445312 153.753906 193.125 153.75 192.800781 C 153.746094 192.476562 153.714844 192.160156 153.65625 191.84375 C 153.597656 191.53125 153.511719 191.230469 153.398438 190.9375 C 153.285156 190.644531 153.152344 190.371094 152.992188 190.113281 C 152.832031 189.855469 152.648438 189.621094 152.445312 189.40625 C 152.242188 189.191406 152.023438 189 151.789062 188.839844 C 151.550781 188.675781 151.300781 188.542969 151.039062 188.4375 C 150.777344 188.332031 150.507812 188.257812 150.230469 188.214844 C 149.953125 188.175781 149.675781 188.164062 149.394531 188.183594 C 149.109375 188.207031 148.832031 188.257812 148.558594 188.34375 C 148.285156 188.425781 148.015625 188.539062 147.757812 188.683594 C 147.503906 188.828125 147.257812 189 147.027344 189.195312 C 146.796875 189.394531 146.585938 189.617188 146.390625 189.859375 C 146.195312 190.105469 146.023438 190.367188 145.875 190.648438 C 145.722656 190.929688 145.597656 191.222656 145.496094 191.53125 C 145.394531 191.839844 145.320312 192.152344 145.273438 192.476562 Z M 145.273438 192.476562 " fill-opacity="1" fill-rule="nonzero"/><path fill="#9ce4fd" d="M 134.585938 182.734375 C 134.574219 183.160156 134.601562 183.582031 134.664062 183.996094 C 134.726562 184.414062 134.828125 184.816406 134.960938 185.207031 C 135.097656 185.597656 135.269531 185.964844 135.46875 186.316406 C 135.671875 186.664062 135.90625 186.988281 136.167969 187.285156 C 136.425781 187.578125 136.714844 187.84375 137.023438 188.074219 C 137.332031 188.304688 137.664062 188.496094 138.007812 188.652344 C 138.355469 188.808594 138.714844 188.921875 139.085938 189 C 139.457031 189.074219 139.832031 189.105469 140.210938 189.097656 C 140.589844 189.089844 140.964844 189.042969 141.339844 188.949219 C 141.714844 188.859375 142.078125 188.726562 142.429688 188.558594 C 142.785156 188.386719 143.121094 188.179688 143.441406 187.933594 C 143.757812 187.691406 144.054688 187.417969 144.328125 187.109375 C 144.601562 186.800781 144.847656 186.46875 145.0625 186.109375 C 145.28125 185.75 145.464844 185.375 145.617188 184.976562 C 145.765625 184.582031 145.882812 184.171875 145.960938 183.753906 C 146.042969 183.335938 146.085938 182.914062 146.089844 182.488281 C 146.101562 182.0625 146.074219 181.644531 146.011719 181.226562 C 145.949219 180.8125 145.847656 180.410156 145.714844 180.019531 C 145.578125 179.628906 145.40625 179.257812 145.207031 178.910156 C 145.003906 178.558594 144.769531 178.238281 144.507812 177.941406 C 144.25 177.644531 143.960938 177.382812 143.652344 177.152344 C 143.34375 176.921875 143.011719 176.730469 142.667969 176.574219 C 142.320312 176.417969 141.960938 176.300781 141.589844 176.226562 C 141.21875 176.152344 140.84375 176.117188 140.464844 176.125 C 140.085938 176.132812 139.710938 176.183594 139.335938 176.273438 C 138.960938 176.367188 138.597656 176.496094 138.246094 176.667969 C 137.890625 176.839844 137.554688 177.046875 137.234375 177.289062 C 136.917969 177.535156 136.621094 177.808594 136.347656 178.117188 C 136.074219 178.421875 135.828125 178.757812 135.613281 179.113281 C 135.394531 179.472656 135.210938 179.851562 135.058594 180.246094 C 134.910156 180.644531 134.792969 181.050781 134.714844 181.46875 C 134.632812 181.890625 134.589844 182.3125 134.585938 182.734375 Z M 134.585938 182.734375 " fill-opacity="1" fill-rule="nonzero"/><path fill="#9ce4fd" d="M 120.316406 177.324219 C 120.316406 177.800781 120.359375 178.273438 120.441406 178.738281 C 120.523438 179.203125 120.640625 179.65625 120.800781 180.09375 C 120.960938 180.53125 121.15625 180.949219 121.386719 181.339844 C 121.617188 181.734375 121.878906 182.097656 122.175781 182.429688 C 122.46875 182.761719 122.789062 183.058594 123.132812 183.320312 C 123.476562 183.578125 123.839844 183.796875 124.222656 183.972656 C 124.609375 184.152344 125.003906 184.28125 125.410156 184.371094 C 125.8125 184.457031 126.222656 184.496094 126.636719 184.488281 C 127.050781 184.484375 127.460938 184.429688 127.867188 184.332031 C 128.269531 184.230469 128.664062 184.085938 129.042969 183.898438 C 129.425781 183.707031 129.785156 183.480469 130.125 183.207031 C 130.46875 182.9375 130.785156 182.628906 131.074219 182.289062 C 131.363281 181.945312 131.621094 181.574219 131.84375 181.175781 C 132.070312 180.773438 132.261719 180.351562 132.414062 179.910156 C 132.566406 179.464844 132.683594 179.011719 132.757812 178.542969 C 132.832031 178.074219 132.867188 177.601562 132.863281 177.125 C 132.859375 176.648438 132.820312 176.179688 132.738281 175.710938 C 132.65625 175.246094 132.535156 174.792969 132.378906 174.355469 C 132.21875 173.917969 132.023438 173.503906 131.792969 173.109375 C 131.5625 172.71875 131.296875 172.355469 131.003906 172.019531 C 130.710938 171.6875 130.390625 171.390625 130.046875 171.132812 C 129.703125 170.871094 129.335938 170.652344 128.953125 170.476562 C 128.570312 170.300781 128.175781 170.167969 127.769531 170.082031 C 127.363281 169.996094 126.953125 169.953125 126.542969 169.960938 C 126.128906 169.96875 125.71875 170.019531 125.3125 170.121094 C 124.910156 170.21875 124.515625 170.363281 124.136719 170.554688 C 123.753906 170.742188 123.394531 170.972656 123.050781 171.242188 C 122.710938 171.515625 122.394531 171.820312 122.105469 172.164062 C 121.816406 172.503906 121.558594 172.875 121.332031 173.277344 C 121.109375 173.675781 120.917969 174.097656 120.765625 174.542969 C 120.609375 174.984375 120.496094 175.441406 120.421875 175.910156 C 120.347656 176.378906 120.3125 176.851562 120.316406 177.324219 Z M 120.316406 177.324219 " fill-opacity="1" fill-rule="nonzero"/><path fill="#9ce4fd" d="M 99.925781 183.203125 C 100.234375 183.785156 100.59375 184.335938 100.996094 184.847656 C 101.402344 185.359375 101.84375 185.828125 102.328125 186.253906 C 102.808594 186.675781 103.320312 187.046875 103.863281 187.363281 C 104.40625 187.679688 104.964844 187.9375 105.546875 188.136719 C 106.125 188.335938 106.714844 188.472656 107.308594 188.546875 C 107.90625 188.617188 108.496094 188.625 109.085938 188.570312 C 109.675781 188.515625 110.25 188.394531 110.808594 188.210938 C 111.367188 188.027344 111.898438 187.785156 112.40625 187.484375 C 112.914062 187.179688 113.382812 186.824219 113.820312 186.414062 C 114.253906 186.003906 114.648438 185.546875 114.992188 185.042969 C 115.339844 184.542969 115.636719 184.003906 115.882812 183.425781 C 116.128906 182.851562 116.320312 182.253906 116.453125 181.625 C 116.589844 181 116.664062 180.363281 116.683594 179.710938 C 116.703125 179.058594 116.660156 178.40625 116.5625 177.753906 C 116.464844 177.101562 116.308594 176.464844 116.097656 175.835938 C 115.882812 175.207031 115.621094 174.605469 115.300781 174.023438 C 114.992188 173.441406 114.632812 172.894531 114.230469 172.378906 C 113.824219 171.867188 113.382812 171.398438 112.898438 170.976562 C 112.417969 170.550781 111.90625 170.183594 111.363281 169.863281 C 110.820312 169.546875 110.261719 169.289062 109.679688 169.089844 C 109.101562 168.890625 108.511719 168.757812 107.917969 168.683594 C 107.320312 168.609375 106.730469 168.601562 106.140625 168.660156 C 105.550781 168.714844 104.976562 168.835938 104.417969 169.015625 C 103.859375 169.199219 103.328125 169.441406 102.820312 169.746094 C 102.3125 170.046875 101.84375 170.40625 101.40625 170.816406 C 100.972656 171.226562 100.578125 171.683594 100.234375 172.183594 C 99.886719 172.6875 99.589844 173.226562 99.34375 173.800781 C 99.097656 174.375 98.90625 174.976562 98.773438 175.601562 C 98.636719 176.226562 98.5625 176.867188 98.542969 177.515625 C 98.523438 178.167969 98.566406 178.820312 98.664062 179.472656 C 98.761719 180.125 98.917969 180.765625 99.128906 181.394531 C 99.34375 182.019531 99.605469 182.625 99.925781 183.203125 Z M 99.925781 183.203125 " fill-opacity="1" fill-rule="nonzero"/><path fill="#9ce4fd" d="M 294.847656 225.640625 C 295.347656 223.667969 295.84375 221.71875 296.34375 219.746094 C 297.082031 216.867188 297.820312 213.992188 298.558594 211.089844 C 299.535156 207.261719 300.507812 203.460938 301.507812 199.632812 C 301.605469 199.226562 301.652344 198.824219 301.816406 198.417969 C 302.152344 197.613281 302.769531 197.253906 303.625 197.492188 C 304.769531 197.824219 305.910156 198.183594 307.054688 198.515625 C 309.457031 199.226562 311.859375 199.941406 314.261719 200.65625 C 316.214844 201.226562 318.140625 201.820312 320.09375 202.414062 C 322.851562 203.246094 325.613281 204.054688 328.371094 204.886719 C 330.039062 205.386719 331.703125 205.882812 333.394531 206.382812 C 334.203125 206.621094 334.988281 206.859375 335.796875 207.121094 C 336.699219 207.40625 337.058594 208.121094 336.773438 209.046875 C 335.679688 212.730469 334.582031 216.417969 333.488281 220.125 C 332.609375 223.074219 331.726562 226.019531 330.847656 228.945312 C 329.730469 232.679688 328.632812 236.410156 327.539062 240.121094 C 327.492188 240.261719 327.445312 240.40625 327.421875 240.570312 C 327.300781 241.402344 326.160156 241.902344 325.421875 241.664062 C 323.398438 241.023438 321.351562 240.40625 319.332031 239.785156 C 316.140625 238.8125 312.953125 237.8125 309.765625 236.816406 C 306.242188 235.722656 302.722656 234.652344 299.199219 233.558594 C 298.628906 233.367188 298.058594 233.152344 297.464844 233.035156 C 297.273438 232.511719 297.082031 232.011719 296.890625 231.488281 C 296.367188 230.0625 295.820312 228.613281 295.296875 227.164062 C 295.15625 226.6875 294.871094 226.210938 294.847656 225.640625 Z M 320.210938 210.566406 C 320.332031 209.617188 319.425781 208.855469 318.59375 208.878906 C 317.785156 208.878906 317.285156 209.285156 316.925781 209.949219 C 316.285156 211.210938 315.855469 212.542969 315.332031 213.847656 C 314.882812 215.015625 314.453125 216.203125 313.882812 217.296875 C 313.667969 217.699219 313.667969 217.699219 313.285156 217.511719 C 313.074219 217.414062 312.882812 217.296875 312.691406 217.175781 C 311.144531 216.082031 309.550781 215.039062 308.074219 213.847656 C 307.863281 213.660156 307.625 213.515625 307.339844 213.398438 C 306.503906 213.089844 305.433594 213.609375 305.269531 214.46875 C 305.148438 215.132812 305.21875 215.75 305.742188 216.25 C 306.03125 216.535156 306.316406 216.796875 306.648438 217.011719 C 307.242188 217.390625 307.8125 217.796875 308.386719 218.199219 C 309.171875 218.746094 309.933594 219.363281 310.742188 219.886719 C 311.40625 220.316406 312.121094 220.71875 312.90625 220.886719 C 313.285156 220.980469 313.453125 221.125 313.574219 221.457031 C 314.285156 223.429688 315.023438 225.402344 315.761719 227.375 C 316.285156 228.753906 316.902344 230.109375 317.6875 231.371094 C 318.09375 232.035156 318.878906 232.34375 319.59375 232.132812 C 320.378906 231.894531 320.804688 231.25 320.78125 230.394531 C 320.757812 230.085938 320.640625 229.847656 320.496094 229.585938 C 319.902344 228.445312 319.285156 227.304688 318.832031 226.09375 C 318.046875 224.023438 317.308594 221.933594 316.523438 219.863281 C 316.453125 219.648438 316.453125 219.484375 316.570312 219.269531 C 317.570312 217.460938 318.234375 215.535156 318.972656 213.609375 C 319.257812 212.875 319.472656 212.089844 319.949219 211.425781 C 320.140625 211.210938 320.234375 210.902344 320.210938 210.566406 Z M 320.210938 210.566406 " fill-opacity="1" fill-rule="nonzero"/><path fill="#fffefe" d="M 200 224.570312 C 200.453125 224.714844 200.929688 224.785156 201.355469 224.953125 C 203.523438 225.761719 204.902344 227.78125 204.710938 229.96875 C 204.570312 231.65625 203.996094 233.175781 202.949219 234.53125 C 201.308594 236.648438 199.121094 237.933594 196.574219 238.714844 C 196.144531 238.835938 195.742188 238.953125 195.3125 239.050781 C 195.097656 239.097656 194.910156 239.167969 194.742188 239.3125 C 193.789062 240 192.480469 239.453125 192.195312 238.359375 C 192.054688 237.835938 191.933594 237.3125 191.863281 236.816406 C 191.316406 233.820312 190.886719 230.777344 190.457031 227.757812 C 190.125 225.449219 189.839844 223.121094 189.554688 220.816406 C 189.484375 220.21875 189.386719 219.648438 189.292969 219.078125 C 189.148438 218.292969 189.292969 217.605469 189.960938 217.082031 C 190.03125 217.035156 190.101562 216.964844 190.148438 216.890625 C 190.554688 216.179688 191.242188 215.847656 191.957031 215.585938 C 192.980469 215.226562 194.003906 214.871094 195.097656 214.871094 C 196.742188 214.871094 198.074219 215.585938 199.121094 216.820312 C 200.214844 218.105469 200.761719 219.625 200.808594 221.3125 C 200.832031 222.242188 200.617188 223.121094 200.214844 223.953125 C 200.144531 224.167969 200 224.332031 200 224.570312 Z M 201.378906 229.777344 C 201.429688 229.015625 201.140625 228.492188 200.261719 228.113281 C 199.761719 227.898438 199.238281 227.804688 198.691406 227.851562 C 197.144531 227.996094 195.667969 228.375 194.3125 229.183594 C 194.125 229.300781 194.050781 229.398438 194.097656 229.636719 C 194.195312 230.230469 194.265625 230.824219 194.359375 231.441406 C 194.550781 232.726562 194.765625 233.984375 194.980469 235.246094 C 195.050781 235.722656 195.074219 235.722656 195.527344 235.578125 C 196.976562 235.152344 198.3125 234.484375 199.453125 233.460938 C 200.570312 232.488281 201.261719 231.277344 201.378906 229.777344 Z M 193.625 225.710938 C 193.886719 225.664062 194.074219 225.546875 194.289062 225.402344 C 195.050781 224.902344 195.765625 224.355469 196.429688 223.691406 C 197.714844 222.382812 197.789062 220.933594 196.90625 219.4375 C 196.453125 218.652344 195.789062 218.128906 194.8125 218.246094 C 194.195312 218.34375 193.601562 218.53125 193.003906 218.769531 C 192.71875 218.890625 192.648438 219.054688 192.71875 219.339844 C 192.8125 219.769531 192.863281 220.195312 192.910156 220.625 C 193.074219 221.933594 193.21875 223.214844 193.410156 224.523438 C 193.457031 224.929688 193.386719 225.332031 193.625 225.710938 Z M 193.625 225.710938 " fill-opacity="1" fill-rule="nonzero"/><path fill="#fffefe" d="M 243.925781 220.316406 C 243.925781 222.242188 243.996094 223.523438 243.902344 224.808594 C 243.78125 226.449219 243.855469 228.066406 243.804688 229.707031 C 243.78125 230.632812 243.308594 231.226562 242.496094 231.511719 C 241.761719 231.773438 240.738281 231.179688 240.546875 230.46875 C 240.402344 229.945312 240.332031 229.398438 240.453125 228.828125 C 240.5 228.636719 240.5 228.445312 240.5 228.257812 C 240.5 226.640625 240.523438 225.023438 240.523438 223.40625 C 240.523438 222.8125 240.523438 222.8125 239.953125 222.574219 C 238.523438 221.980469 237.074219 221.503906 235.574219 221.195312 C 235.097656 221.101562 234.667969 220.910156 234.21875 220.765625 C 233.789062 220.648438 233.695312 220.671875 233.457031 221.027344 C 232.410156 222.527344 231.3125 223.976562 230.21875 225.425781 C 229.980469 225.761719 229.71875 226.070312 229.503906 226.449219 C 229.078125 227.234375 228.078125 227.589844 227.148438 227.042969 C 226.4375 226.640625 226.152344 225.664062 226.507812 224.855469 C 226.769531 224.261719 227.222656 223.785156 227.625 223.289062 C 228.578125 222.097656 229.480469 220.886719 230.339844 219.625 C 231.480469 217.960938 232.71875 216.394531 233.933594 214.777344 C 234.980469 213.398438 236.074219 212.066406 237.191406 210.757812 C 238.097656 209.6875 239.046875 208.640625 240.214844 207.835938 C 241.070312 207.238281 241.761719 207.214844 242.546875 207.667969 C 243.164062 208.023438 243.378906 208.640625 243.472656 209.285156 C 243.640625 210.332031 243.734375 211.398438 243.710938 212.445312 C 243.6875 213.636719 243.78125 214.800781 243.855469 215.964844 C 243.972656 217.675781 243.878906 219.316406 243.925781 220.316406 Z M 240.570312 219.199219 C 240.664062 219.054688 240.640625 218.914062 240.617188 218.769531 C 240.59375 217.984375 240.570312 217.175781 240.523438 216.394531 C 240.476562 215.226562 240.308594 214.0625 240.378906 212.875 C 240.378906 212.730469 240.453125 212.566406 240.261719 212.46875 C 239.953125 212.566406 239.832031 212.898438 239.640625 213.113281 C 238.40625 214.492188 237.261719 215.964844 236.144531 217.414062 C 235.859375 217.796875 235.859375 217.84375 236.3125 217.984375 C 236.382812 218.007812 236.453125 218.007812 236.523438 218.035156 C 237.714844 218.320312 238.90625 218.605469 240.070312 219.078125 C 240.214844 219.101562 240.355469 219.222656 240.570312 219.199219 Z M 240.570312 219.199219 " fill-opacity="1" fill-rule="nonzero"/><path fill="#fffefe" d="M 320.210938 210.566406 C 320.234375 210.902344 320.140625 211.210938 319.925781 211.496094 C 319.449219 212.160156 319.257812 212.921875 318.949219 213.683594 C 318.210938 215.585938 317.546875 217.535156 316.546875 219.339844 C 316.429688 219.53125 316.429688 219.699219 316.5 219.933594 C 317.285156 222.003906 318.023438 224.09375 318.808594 226.164062 C 319.257812 227.375 319.878906 228.519531 320.472656 229.660156 C 320.59375 229.921875 320.734375 230.15625 320.757812 230.46875 C 320.804688 231.300781 320.378906 231.941406 319.570312 232.203125 C 318.855469 232.417969 318.070312 232.132812 317.664062 231.441406 C 316.902344 230.15625 316.261719 228.828125 315.738281 227.449219 C 315 225.472656 314.261719 223.5 313.546875 221.527344 C 313.429688 221.195312 313.261719 221.027344 312.882812 220.957031 C 312.097656 220.765625 311.40625 220.386719 310.71875 219.957031 C 309.90625 219.4375 309.148438 218.816406 308.363281 218.269531 C 307.789062 217.867188 307.21875 217.460938 306.625 217.082031 C 306.292969 216.867188 306.007812 216.582031 305.71875 216.320312 C 305.195312 215.824219 305.125 215.179688 305.246094 214.539062 C 305.410156 213.683594 306.480469 213.160156 307.316406 213.46875 C 307.578125 213.5625 307.8125 213.730469 308.050781 213.921875 C 309.527344 215.109375 311.121094 216.15625 312.667969 217.25 C 312.859375 217.367188 313.050781 217.488281 313.261719 217.582031 C 313.644531 217.773438 313.667969 217.773438 313.859375 217.367188 C 314.429688 216.25 314.859375 215.085938 315.308594 213.921875 C 315.808594 212.613281 316.261719 211.28125 316.902344 210.019531 C 317.261719 209.355469 317.761719 208.953125 318.570312 208.953125 C 319.425781 208.855469 320.332031 209.617188 320.210938 210.566406 Z M 320.210938 210.566406 " fill-opacity="1" fill-rule="nonzero"/><path fill="#fffefe" d="M 280.6875 225.523438 C 280.949219 225.570312 281.234375 225.617188 281.519531 225.617188 C 283.734375 225.734375 285.804688 228.042969 286.042969 230.277344 C 286.160156 231.394531 285.96875 232.464844 285.496094 233.488281 C 284.828125 234.9375 283.972656 236.246094 282.828125 237.363281 C 281.949219 238.21875 280.949219 238.90625 279.855469 239.453125 C 279.1875 239.808594 278.546875 240.214844 277.785156 240.382812 C 277 240.546875 275.808594 240 275.597656 239.238281 C 274.859375 236.765625 273.738281 234.4375 272.953125 231.988281 C 272.359375 230.207031 271.8125 228.421875 271.242188 226.640625 C 270.886719 225.59375 270.503906 224.570312 270.195312 223.5 C 269.980469 222.742188 269.933594 221.957031 270.003906 221.195312 C 270.050781 220.53125 270.433594 220.007812 270.957031 219.625 C 271.742188 219.03125 272.574219 218.484375 273.574219 218.320312 C 274.289062 218.175781 275.023438 218.199219 275.738281 218.269531 C 276.476562 218.34375 277.191406 218.484375 277.902344 218.746094 C 279.332031 219.292969 280.285156 220.246094 280.6875 221.742188 C 280.996094 222.859375 281.046875 223.976562 280.757812 225.09375 C 280.6875 225.238281 280.640625 225.355469 280.6875 225.523438 Z M 280.902344 228.945312 C 280.664062 228.945312 280.425781 228.96875 280.164062 229.039062 C 278.785156 229.375 277.546875 230.015625 276.238281 230.515625 C 276.070312 230.585938 276 230.679688 276.070312 230.871094 C 276.121094 230.964844 276.144531 231.085938 276.191406 231.203125 C 276.808594 232.84375 277.453125 234.507812 278.070312 236.148438 C 278.214844 236.554688 278.285156 236.578125 278.640625 236.363281 C 279.640625 235.816406 280.546875 235.125 281.234375 234.199219 C 281.878906 233.34375 282.496094 232.441406 282.710938 231.347656 C 282.949219 230.15625 282.042969 228.945312 280.902344 228.945312 Z M 275.050781 227.425781 C 275.574219 227.28125 275.859375 226.902344 276.214844 226.566406 C 277.238281 225.59375 277.691406 224.382812 277.523438 222.976562 C 277.476562 222.457031 277.238281 222.074219 276.738281 221.910156 C 276.238281 221.71875 275.714844 221.625 275.191406 221.574219 C 274.953125 221.550781 274.691406 221.550781 274.453125 221.574219 C 274.027344 221.597656 273.667969 221.765625 273.382812 222.050781 C 273.167969 222.289062 273.40625 222.597656 273.476562 222.859375 C 273.789062 224.144531 274.335938 225.355469 274.738281 226.640625 C 274.8125 226.851562 274.859375 227.140625 275.050781 227.425781 Z M 275.050781 227.425781 " fill-opacity="1" fill-rule="nonzero"/><path fill="#f2db51" d="M 342.863281 194.6875 C 341.484375 194.710938 340.246094 195.113281 339.152344 195.921875 C 338.414062 196.492188 338.082031 197.351562 337.773438 198.183594 C 337.34375 199.300781 336.9375 200.417969 336.511719 201.535156 C 336.367188 201.914062 336.175781 202.246094 335.84375 202.507812 C 335.25 203.007812 334.320312 203.078125 333.726562 202.554688 C 332.988281 201.890625 332.5625 201.058594 332.679688 200.035156 C 332.726562 199.535156 332.824219 199.015625 332.917969 198.515625 C 333.085938 197.683594 333.132812 196.828125 333.132812 195.972656 C 333.15625 194.1875 332.609375 193.734375 330.992188 193.117188 C 330.703125 193 330.394531 192.976562 330.085938 192.976562 C 329.679688 192.976562 329.300781 192.878906 328.945312 192.691406 C 328.753906 192.570312 328.539062 192.429688 328.445312 192.238281 C 327.992188 191.453125 327.800781 190.621094 328.253906 189.742188 C 328.515625 189.265625 328.921875 188.957031 329.46875 188.910156 C 331.488281 188.695312 332.871094 187.53125 334.058594 186.035156 C 334.75 185.152344 335.226562 184.132812 335.628906 183.085938 C 335.84375 182.5625 336.058594 182.015625 336.296875 181.515625 C 336.796875 180.445312 337.960938 180.042969 338.914062 180.613281 C 339.53125 180.992188 339.9375 181.824219 339.792969 182.585938 C 339.4375 184.464844 339.746094 186.246094 340.316406 188.03125 C 340.769531 189.386719 341.648438 190.3125 343.078125 190.667969 C 343.410156 190.765625 343.746094 190.859375 344.078125 190.90625 C 345.078125 191.097656 345.648438 191.859375 345.578125 192.855469 C 345.550781 193.285156 345.386719 193.640625 345.054688 193.902344 C 344.410156 194.402344 343.746094 194.828125 342.863281 194.6875 Z M 342.863281 194.6875 " fill-opacity="1" fill-rule="nonzero"/><g clip-path="url(#cd971b00e1)"><path fill="#f2db51" d="M 160.597656 256.640625 C 160.597656 255.335938 160.546875 254.027344 160.074219 252.765625 C 159.476562 251.175781 158.503906 249.914062 156.980469 249.105469 C 156.574219 248.890625 156.171875 248.703125 155.742188 248.511719 C 155.027344 248.179688 154.527344 247.585938 154.339844 246.824219 C 154.078125 245.800781 154.933594 244.730469 156.027344 244.730469 C 156.742188 244.730469 157.433594 244.589844 158.121094 244.566406 C 158.765625 244.542969 159.265625 244.136719 159.761719 243.828125 C 161.597656 242.6875 162.808594 241.070312 163.640625 239.097656 C 163.832031 238.667969 164.023438 238.21875 164.238281 237.789062 C 164.640625 236.980469 165.449219 236.742188 166.023438 236.839844 C 166.855469 236.957031 167.496094 237.597656 167.640625 238.382812 C 167.757812 239.027344 167.710938 239.667969 167.710938 240.308594 C 167.734375 241.640625 168.140625 242.851562 168.828125 243.972656 C 169.613281 245.230469 170.757812 245.992188 172.253906 246.15625 C 172.566406 246.183594 172.898438 246.253906 173.207031 246.347656 C 174.015625 246.632812 174.515625 247.347656 174.46875 248.132812 C 174.421875 248.914062 173.851562 249.628906 173.015625 249.746094 C 172.515625 249.820312 172.066406 250.007812 171.613281 250.199219 C 168.875 251.292969 166.996094 253.242188 165.902344 255.976562 C 165.640625 256.617188 165.425781 257.261719 165.210938 257.902344 C 165.070312 258.332031 164.925781 258.757812 164.664062 259.136719 C 164.1875 259.851562 163.453125 260.113281 162.617188 259.875 C 162.429688 259.828125 162.261719 259.757812 162.070312 259.710938 C 161.121094 259.519531 160.597656 258.878906 160.574219 257.902344 C 160.597656 257.523438 160.597656 257.09375 160.597656 256.640625 Z M 160.597656 256.640625 " fill-opacity="1" fill-rule="nonzero"/></g><path fill="#f2db51" d="M 220.464844 234.292969 C 220.796875 235.886719 221.152344 237.480469 221.488281 239.074219 C 221.582031 239.546875 221.703125 240.023438 221.796875 240.523438 C 222.011719 241.546875 221.414062 242.59375 220.441406 243.019531 C 219.703125 243.328125 218.917969 243.449219 218.132812 243.636719 C 213.660156 244.730469 209.183594 245.800781 204.734375 246.871094 C 199.976562 248.011719 195.21875 249.175781 190.457031 250.34375 C 189.078125 250.675781 187.699219 251.007812 186.292969 251.339844 C 185.628906 251.507812 184.984375 251.507812 184.367188 251.125 C 184.25 251.054688 184.128906 251.007812 184.011719 250.960938 C 183.128906 250.722656 182.628906 250.128906 182.441406 249.25 C 182.179688 248.132812 181.917969 247.039062 181.65625 245.921875 C 181.15625 243.710938 180.65625 241.523438 180.132812 239.3125 C 179.300781 235.699219 178.464844 232.058594 177.609375 228.421875 C 176.515625 223.738281 175.445312 219.054688 174.351562 214.394531 C 174.136719 213.46875 173.921875 212.542969 173.707031 211.613281 C 173.636719 211.328125 173.566406 211.019531 173.445312 210.734375 C 172.921875 209.476562 173.515625 208.191406 174.847656 207.808594 C 175.707031 207.574219 176.585938 207.382812 177.441406 207.191406 C 179.964844 206.597656 182.464844 205.980469 184.984375 205.363281 C 188.484375 204.53125 191.957031 203.671875 195.457031 202.839844 C 200.023438 201.722656 204.617188 200.628906 209.183594 199.511719 C 209.46875 199.441406 209.78125 199.394531 210.066406 199.324219 C 210.992188 199.109375 211.753906 199.441406 212.324219 200.15625 C 212.421875 200.25 212.46875 200.394531 212.5625 200.464844 C 213.183594 200.941406 213.371094 201.628906 213.539062 202.34375 C 214.183594 205.410156 214.847656 208.476562 215.515625 211.519531 C 215.847656 213.015625 216.15625 214.515625 216.488281 216.035156 C 216.539062 216.226562 216.585938 216.394531 216.632812 216.582031 C 216.632812 216.628906 216.632812 216.65625 216.632812 216.703125 C 217.203125 219.246094 217.773438 221.8125 218.324219 224.355469 C 219.035156 227.710938 219.75 231.015625 220.464844 234.292969 Z M 200 224.570312 C 199.976562 224.332031 200.144531 224.167969 200.214844 223.976562 C 200.617188 223.144531 200.832031 222.242188 200.808594 221.335938 C 200.761719 219.648438 200.214844 218.128906 199.121094 216.84375 C 198.074219 215.609375 196.765625 214.917969 195.097656 214.894531 C 193.980469 214.894531 192.957031 215.226562 191.957031 215.609375 C 191.242188 215.871094 190.554688 216.203125 190.148438 216.914062 C 190.101562 216.988281 190.03125 217.058594 189.960938 217.105469 C 189.292969 217.628906 189.148438 218.292969 189.292969 219.101562 C 189.410156 219.671875 189.484375 220.269531 189.554688 220.839844 C 189.839844 223.144531 190.125 225.472656 190.457031 227.78125 C 190.886719 230.800781 191.316406 233.820312 191.863281 236.839844 C 191.957031 237.363281 192.078125 237.882812 192.195312 238.382812 C 192.480469 239.476562 193.789062 240.023438 194.742188 239.335938 C 194.910156 239.214844 195.097656 239.121094 195.3125 239.074219 C 195.742188 238.976562 196.167969 238.859375 196.574219 238.742188 C 199.097656 237.957031 201.308594 236.671875 202.949219 234.554688 C 203.996094 233.226562 204.570312 231.679688 204.710938 229.992188 C 204.902344 227.804688 203.5 225.761719 201.355469 224.976562 C 200.929688 224.785156 200.453125 224.714844 200 224.570312 Z M 200 224.570312 " fill-opacity="1" fill-rule="nonzero"/><path fill="#f2db51" d="M 201.378906 229.777344 C 201.261719 231.277344 200.570312 232.488281 199.476562 233.460938 C 198.335938 234.484375 197.003906 235.152344 195.550781 235.578125 C 195.097656 235.699219 195.074219 235.722656 195.003906 235.246094 C 194.789062 233.984375 194.597656 232.703125 194.386719 231.441406 C 194.289062 230.847656 194.21875 230.230469 194.125 229.636719 C 194.074219 229.398438 194.171875 229.300781 194.335938 229.183594 C 195.667969 228.375 197.167969 227.996094 198.714844 227.851562 C 199.238281 227.804688 199.785156 227.875 200.285156 228.113281 C 201.140625 228.519531 201.429688 229.015625 201.378906 229.777344 Z M 201.378906 229.777344 " fill-opacity="1" fill-rule="nonzero"/><path fill="#f2db51" d="M 193.625 225.710938 C 193.386719 225.332031 193.457031 224.929688 193.410156 224.546875 C 193.21875 223.261719 193.074219 221.957031 192.910156 220.648438 C 192.863281 220.21875 192.8125 219.792969 192.71875 219.363281 C 192.671875 219.078125 192.71875 218.890625 193.003906 218.792969 C 193.601562 218.582031 194.195312 218.367188 194.8125 218.269531 C 195.789062 218.128906 196.453125 218.675781 196.90625 219.460938 C 197.789062 220.980469 197.714844 222.40625 196.429688 223.714844 C 195.789062 224.382812 195.074219 224.929688 194.289062 225.425781 C 194.074219 225.546875 193.863281 225.664062 193.625 225.710938 Z M 193.625 225.710938 " fill-opacity="1" fill-rule="nonzero"/><g clip-path="url(#6dab10d803)"><path fill="#fac2c1" d="M 348.859375 218.769531 C 348.859375 220.386719 347.933594 221.625 346.289062 221.910156 C 345.125 222.121094 344.148438 221.8125 343.269531 221.125 C 342.554688 220.578125 342.171875 219.769531 342.171875 218.890625 C 342.171875 218.082031 342.410156 217.273438 342.933594 216.605469 C 343.386719 216.011719 344.007812 215.585938 344.765625 215.441406 C 344.886719 215.417969 344.980469 215.394531 345.101562 215.394531 C 345.625 215.347656 346.171875 215.441406 346.671875 215.5625 C 347.8125 215.847656 348.40625 216.703125 348.742188 217.796875 C 348.835938 218.128906 348.929688 218.484375 348.859375 218.769531 Z M 348.859375 218.769531 " fill-opacity="1" fill-rule="nonzero"/></g><g clip-path="url(#186e9808d4)"><path fill="#fac2c1" d="M 320.996094 178.734375 C 320.804688 177.402344 322.328125 176.144531 323.804688 176.761719 C 324.589844 177.09375 325.019531 177.785156 325.113281 178.617188 C 325.160156 178.996094 325.183594 179.375 325.042969 179.734375 C 324.660156 180.613281 324.042969 181.039062 323.113281 181.039062 C 322.234375 181.039062 321.472656 180.492188 321.164062 179.660156 C 321.019531 179.351562 320.996094 179.042969 320.996094 178.734375 Z M 320.996094 178.734375 " fill-opacity="1" fill-rule="nonzero"/></g><g clip-path="url(#a495e3afa2)"><path fill="#fac2c1" d="M 187.554688 263.75 C 185.769531 263.679688 184.699219 262.394531 184.582031 260.921875 C 184.535156 260.304688 184.820312 259.78125 185.105469 259.257812 C 185.460938 258.59375 186.007812 258.140625 186.722656 257.925781 C 187.460938 257.710938 188.199219 257.59375 188.960938 257.808594 C 189.601562 257.996094 190.078125 258.402344 190.339844 258.996094 C 190.671875 259.683594 190.910156 260.421875 190.769531 261.230469 C 190.484375 262.917969 189.410156 263.371094 188.363281 263.609375 C 188.078125 263.679688 187.816406 263.796875 187.554688 263.75 Z M 187.554688 263.75 " fill-opacity="1" fill-rule="nonzero"/></g><path fill="#fac2c1" d="M 239.476562 253.671875 C 239.378906 252.789062 240.332031 251.554688 241.640625 251.53125 C 242.925781 251.507812 243.949219 252.957031 243.925781 253.933594 C 243.902344 255.167969 242.902344 256.046875 241.6875 256.070312 C 240.378906 256.09375 239.40625 254.835938 239.476562 253.671875 Z M 239.476562 253.671875 " fill-opacity="1" fill-rule="nonzero"/><path fill="#fac2c1" d="M 220.464844 234.292969 C 219.75 230.988281 219.058594 227.710938 218.324219 224.40625 C 217.773438 221.859375 217.203125 219.292969 216.632812 216.75 C 216.632812 216.726562 216.632812 216.679688 216.632812 216.628906 C 216.824219 216.488281 216.894531 216.25 216.964844 216.035156 C 217.894531 213.492188 218.796875 210.925781 219.726562 208.382812 C 220.890625 205.171875 222.058594 201.960938 223.222656 198.753906 C 223.914062 196.851562 224.605469 194.925781 225.292969 193.023438 C 225.484375 192.5 225.605469 191.90625 226.054688 191.5 C 226.554688 191.050781 227.078125 190.667969 227.722656 190.429688 C 228.148438 190.265625 228.625 190.265625 229.078125 190.40625 C 234.195312 192.121094 239.332031 193.855469 244.449219 195.589844 C 246.828125 196.398438 249.230469 197.207031 251.636719 198.015625 C 254.015625 198.824219 256.371094 199.65625 258.75 200.441406 C 259.773438 200.773438 260.796875 201.152344 261.820312 201.488281 C 262.582031 201.722656 263.175781 202.152344 263.484375 202.914062 C 263.507812 202.984375 263.554688 203.054688 263.605469 203.101562 C 264.199219 203.886719 264.128906 204.71875 263.792969 205.574219 C 262.890625 207.953125 261.984375 210.332031 261.082031 212.707031 C 260.296875 214.777344 259.488281 216.84375 258.726562 218.914062 C 257.894531 221.148438 257.035156 223.382812 256.203125 225.617188 C 256.011719 226.117188 255.726562 226.617188 255.703125 227.1875 C 255.371094 227.519531 255.324219 227.996094 255.15625 228.398438 C 254.300781 230.65625 253.441406 232.890625 252.585938 235.152344 C 251.800781 237.21875 251.015625 239.3125 250.230469 241.378906 C 250.039062 241.902344 249.828125 242.449219 249.636719 242.972656 C 249.421875 243.472656 249.136719 243.898438 248.660156 244.183594 C 248.136719 244.492188 247.566406 244.492188 246.996094 244.351562 C 244.902344 243.851562 242.972656 242.925781 240.976562 242.117188 C 239.046875 241.355469 237.121094 240.617188 235.214844 239.835938 C 231.835938 238.429688 228.363281 237.265625 224.960938 235.886719 C 223.722656 235.386719 222.460938 234.890625 221.203125 234.414062 C 220.941406 234.390625 220.703125 234.292969 220.464844 234.292969 Z M 243.925781 220.316406 C 243.878906 219.316406 243.972656 217.675781 243.855469 216.035156 C 243.757812 214.871094 243.664062 213.683594 243.710938 212.519531 C 243.734375 211.449219 243.640625 210.402344 243.472656 209.355469 C 243.378906 208.714844 243.140625 208.097656 242.546875 207.738281 C 241.761719 207.261719 241.070312 207.3125 240.214844 207.90625 C 239.046875 208.714844 238.097656 209.761719 237.191406 210.828125 C 236.074219 212.136719 234.980469 213.46875 233.933594 214.847656 C 232.71875 216.464844 231.480469 218.035156 230.339844 219.699219 C 229.480469 220.933594 228.554688 222.144531 227.625 223.359375 C 227.222656 223.859375 226.769531 224.332031 226.507812 224.929688 C 226.152344 225.734375 226.4375 226.710938 227.148438 227.113281 C 228.101562 227.660156 229.078125 227.304688 229.503906 226.519531 C 229.71875 226.140625 229.957031 225.832031 230.21875 225.5 C 231.3125 224.046875 232.410156 222.597656 233.457031 221.101562 C 233.695312 220.742188 233.8125 220.71875 234.21875 220.839844 C 234.667969 220.980469 235.121094 221.171875 235.574219 221.265625 C 237.097656 221.550781 238.546875 222.050781 239.953125 222.644531 C 240.5 222.882812 240.523438 222.859375 240.523438 223.476562 C 240.523438 225.09375 240.523438 226.710938 240.5 228.328125 C 240.5 228.519531 240.5 228.707031 240.453125 228.898438 C 240.332031 229.445312 240.402344 229.992188 240.546875 230.539062 C 240.761719 231.25 241.761719 231.847656 242.496094 231.585938 C 243.308594 231.300781 243.78125 230.703125 243.804688 229.777344 C 243.855469 228.136719 243.804688 226.519531 243.902344 224.878906 C 243.996094 223.523438 243.925781 222.242188 243.925781 220.316406 Z M 243.925781 220.316406 " fill-opacity="1" fill-rule="nonzero"/><path fill="#fac2c1" d="M 240.570312 219.199219 C 240.378906 219.222656 240.238281 219.101562 240.070312 219.054688 C 238.929688 218.605469 237.738281 218.320312 236.523438 218.007812 C 236.453125 217.984375 236.382812 217.984375 236.3125 217.960938 C 235.859375 217.820312 235.859375 217.796875 236.144531 217.390625 C 237.261719 215.917969 238.40625 214.445312 239.640625 213.089844 C 239.832031 212.875 239.953125 212.566406 240.261719 212.445312 C 240.425781 212.542969 240.378906 212.730469 240.378906 212.851562 C 240.332031 214.039062 240.476562 215.203125 240.523438 216.367188 C 240.570312 217.152344 240.59375 217.960938 240.617188 218.746094 C 240.617188 218.914062 240.640625 219.054688 240.570312 219.199219 Z M 240.570312 219.199219 " fill-opacity="1" fill-rule="nonzero"/><path fill="#d2bbff" d="M 194.835938 187.746094 C 194.695312 186.554688 195.433594 185.75 196.40625 185.152344 C 197.429688 184.535156 198.523438 184.488281 199.597656 185.128906 C 200.808594 185.867188 201.355469 187.414062 200.761719 188.742188 C 200.40625 189.574219 199.832031 190.195312 199.023438 190.644531 C 197.335938 191.574219 194.765625 190.40625 194.835938 188.078125 C 194.835938 188.007812 194.835938 187.910156 194.835938 187.746094 Z M 194.835938 187.746094 " fill-opacity="1" fill-rule="nonzero"/><path fill="#d2bbff" d="M 294.847656 225.640625 C 294.871094 226.210938 295.15625 226.6875 295.320312 227.210938 C 295.820312 228.660156 296.367188 230.085938 296.917969 231.535156 C 297.105469 232.058594 297.296875 232.558594 297.488281 233.082031 C 297.988281 234.484375 298.488281 235.910156 298.988281 237.3125 C 299.128906 237.71875 299.222656 238.144531 299.082031 238.597656 C 298.84375 239.335938 298.390625 239.882812 297.628906 240.070312 C 296.15625 240.476562 294.773438 241.09375 293.347656 241.59375 C 291.800781 242.140625 290.300781 242.734375 288.753906 243.304688 C 286.328125 244.207031 283.925781 245.113281 281.496094 246.015625 C 279.785156 246.65625 278.046875 247.300781 276.308594 247.941406 C 274.167969 248.75 272.003906 249.558594 269.863281 250.34375 C 269.125 250.628906 268.363281 250.890625 267.625 251.175781 C 267.292969 251.292969 266.957031 251.339844 266.625 251.339844 C 265.792969 251.339844 265.222656 250.960938 264.839844 250.246094 C 264.722656 250.007812 264.578125 249.796875 264.390625 249.582031 C 264.152344 249.34375 264.03125 249.035156 263.914062 248.75 C 263.367188 247.347656 262.820312 245.945312 262.296875 244.566406 C 261.105469 241.449219 259.890625 238.335938 258.679688 235.222656 C 257.679688 232.628906 256.703125 230.0625 255.703125 227.472656 C 255.679688 227.398438 255.65625 227.328125 255.632812 227.257812 C 255.632812 226.6875 255.917969 226.210938 256.132812 225.6875 C 256.988281 223.453125 257.820312 221.21875 258.65625 218.984375 C 259.414062 216.914062 260.226562 214.847656 261.011719 212.777344 C 261.507812 212.707031 261.984375 212.46875 262.460938 212.304688 C 265.886719 211.042969 269.289062 209.761719 272.691406 208.476562 C 274.90625 207.644531 277.117188 206.859375 279.308594 206.050781 C 280.757812 205.527344 282.1875 204.980469 283.640625 204.433594 C 284.113281 204.269531 284.566406 204.148438 285.066406 204.316406 C 285.28125 204.386719 285.519531 204.410156 285.734375 204.457031 C 286.613281 204.648438 287.230469 205.148438 287.542969 206.003906 C 288.5625 208.832031 289.609375 211.660156 290.632812 214.492188 C 291.46875 216.773438 292.300781 219.054688 293.132812 221.335938 C 293.585938 222.597656 294.0625 223.859375 294.511719 225.140625 C 294.65625 225.308594 294.679688 225.523438 294.847656 225.640625 Z M 280.6875 225.523438 C 280.617188 225.355469 280.6875 225.238281 280.710938 225.117188 C 280.972656 223.976562 280.949219 222.882812 280.640625 221.765625 C 280.234375 220.269531 279.285156 219.316406 277.855469 218.769531 C 277.167969 218.507812 276.429688 218.34375 275.691406 218.292969 C 274.976562 218.222656 274.265625 218.199219 273.527344 218.34375 C 272.527344 218.53125 271.695312 219.078125 270.910156 219.648438 C 270.386719 220.03125 270.003906 220.554688 269.957031 221.21875 C 269.910156 221.980469 269.933594 222.765625 270.148438 223.523438 C 270.457031 224.59375 270.835938 225.617188 271.195312 226.664062 C 271.789062 228.445312 272.335938 230.230469 272.929688 232.011719 C 273.738281 234.460938 274.859375 236.792969 275.574219 239.261719 C 275.785156 240.023438 277 240.59375 277.761719 240.40625 C 278.523438 240.238281 279.164062 239.808594 279.832031 239.476562 C 280.925781 238.929688 281.925781 238.242188 282.804688 237.386719 C 283.949219 236.269531 284.804688 234.960938 285.472656 233.511719 C 285.945312 232.488281 286.136719 231.417969 286.019531 230.300781 C 285.78125 228.042969 283.710938 225.761719 281.496094 225.640625 C 281.257812 225.59375 280.972656 225.570312 280.6875 225.523438 Z M 280.6875 225.523438 " fill-opacity="1" fill-rule="nonzero"/><path fill="#d2bbff" d="M 280.902344 228.945312 C 282.042969 228.945312 282.949219 230.15625 282.710938 231.324219 C 282.472656 232.417969 281.878906 233.320312 281.234375 234.175781 C 280.546875 235.101562 279.640625 235.792969 278.640625 236.339844 C 278.285156 236.53125 278.238281 236.53125 278.070312 236.125 C 277.453125 234.484375 276.808594 232.820312 276.191406 231.179688 C 276.144531 231.0625 276.121094 230.964844 276.070312 230.847656 C 276 230.65625 276.070312 230.5625 276.238281 230.492188 C 277.546875 229.992188 278.808594 229.351562 280.164062 229.015625 C 280.425781 228.96875 280.664062 228.96875 280.902344 228.945312 Z M 280.902344 228.945312 " fill-opacity="1" fill-rule="nonzero"/><path fill="#d2bbff" d="M 275.050781 227.425781 C 274.859375 227.140625 274.8125 226.851562 274.738281 226.59375 C 274.359375 225.332031 273.789062 224.121094 273.476562 222.8125 C 273.40625 222.550781 273.167969 222.242188 273.382812 222.003906 C 273.644531 221.71875 274.027344 221.550781 274.453125 221.527344 C 274.691406 221.527344 274.953125 221.503906 275.191406 221.527344 C 275.714844 221.574219 276.238281 221.671875 276.738281 221.859375 C 277.238281 222.050781 277.476562 222.429688 277.523438 222.929688 C 277.691406 224.355469 277.238281 225.546875 276.214844 226.519531 C 275.859375 226.902344 275.546875 227.28125 275.050781 227.425781 Z M 275.050781 227.425781 " fill-opacity="1" fill-rule="nonzero"/><g fill="#9ce4fd" fill-opacity="1"><g transform="translate(81.097131, 161.214118)"><g><path d="M 3.101562 -36.199219 L 3.101562 0 L 16.546875 0 L 16.546875 -10.34375 L 27.410156 -10.34375 L 27.410156 -20.6875 L 16.546875 -20.6875 L 16.546875 -24.824219 L 29.996094 -24.824219 L 29.996094 -36.199219 Z M 3.101562 -36.199219 "/></g></g></g><g fill="#9ce4fd" fill-opacity="1"><g transform="translate(112.124758, 161.214118)"><g><path d="M 16.546875 -12.929688 L 29.996094 -12.929688 L 29.996094 -23.273438 L 16.546875 -23.273438 L 16.546875 -25.855469 L 31.027344 -25.855469 L 31.027344 -36.199219 L 3.101562 -36.199219 L 3.101562 0 L 32.0625 0 L 32.0625 -10.34375 L 16.546875 -10.34375 Z M 16.546875 -12.929688 "/></g></g></g><g fill="#9ce4fd" fill-opacity="1"><g transform="translate(145.738013, 161.214118)"><g><path d="M 16.546875 -36.199219 L 3.101562 -36.199219 L 3.101562 0 L 30.511719 0 L 30.511719 -11.894531 L 16.546875 -11.894531 Z M 16.546875 -36.199219 "/></g></g></g><g fill="#9ce4fd" fill-opacity="1"><g transform="translate(177.282763, 161.214118)"><g><path d="M 16.546875 -36.199219 L 3.101562 -36.199219 L 3.101562 0 L 16.546875 0 Z M 16.546875 -36.199219 "/></g></g></g><g fill="#9ce4fd" fill-opacity="1"><g transform="translate(196.933593, 161.214118)"><g><path d="M 2.070312 -18.101562 C 2.070312 -7.5 10.34375 0.777344 21.203125 0.777344 C 31.027344 0.777344 35.683594 -4.914062 35.683594 -4.914062 L 29.476562 -14.738281 C 29.476562 -14.738281 26.375 -11.894531 22.753906 -11.894531 C 19.132812 -11.894531 16.546875 -14.480469 16.546875 -18.101562 C 16.546875 -21.71875 19.132812 -24.304688 22.753906 -24.304688 C 26.375 -24.304688 29.476562 -21.460938 29.476562 -21.460938 L 35.683594 -31.289062 C 35.683594 -31.289062 31.027344 -36.976562 21.203125 -36.976562 C 10.34375 -36.976562 2.070312 -28.703125 2.070312 -18.101562 Z M 2.070312 -18.101562 "/></g></g></g><g fill="#9ce4fd" fill-opacity="1"><g transform="translate(233.649612, 161.214118)"><g><path d="M 16.546875 -36.199219 L 3.101562 -36.199219 L 3.101562 0 L 16.546875 0 Z M 16.546875 -36.199219 "/></g></g></g><g fill="#9ce4fd" fill-opacity="1"><g transform="translate(253.300442, 161.214118)"><g><path d="M 1.035156 -36.199219 L 1.035156 -24.304688 L 10.859375 -24.304688 L 10.859375 0 L 24.304688 0 L 24.304688 -24.304688 L 34.132812 -24.304688 L 34.132812 -36.199219 Z M 1.035156 -36.199219 "/></g></g></g><g fill="#9ce4fd" fill-opacity="1"><g transform="translate(288.465079, 161.214118)"><g><path d="M 14.480469 -36.199219 L -1.035156 -36.199219 L 11.378906 -13.964844 L 11.378906 0 L 24.824219 0 L 24.824219 -13.964844 L 37.234375 -36.199219 L 21.71875 -36.199219 L 18.101562 -25.855469 Z M 14.480469 -36.199219 "/></g></g></g></svg>